<svg width="110" height="18" viewBox="0 0 110 18" fill="none" xmlns="http://www.w3.org/2000/svg">
<path d="M12.3893 17.48C10.3413 17.48 9.22131 16.024 9.02931 13.112H4.90131C4.58131 13.848 4.30931 14.536 4.08531 15.176L3.46131 17H0.101312L7.66131 1.16H12.8213L13.8293 12.824C13.9893 14.504 14.3893 15.592 15.0293 16.088C14.5653 17.016 13.6853 17.48 12.3893 17.48ZM5.64531 11.36H8.95731L8.66931 5.192V4.544L6.96531 8.312L5.64531 11.36ZM16.1674 17L19.2154 1.16H24.4954L21.3994 17H16.1674ZM24.817 17L27.745 1.232C29.329 1.056 31.273 0.967999 33.577 0.967999C35.897 0.967999 37.593 1.304 38.665 1.976C39.737 2.648 40.273 3.664 40.273 5.024C40.273 6.368 39.921 7.464 39.217 8.312C38.529 9.16 37.585 9.72 36.385 9.992C36.657 11.32 37.105 12.52 37.729 13.592C38.305 14.6 38.929 15.264 39.601 15.584C39.361 16.256 38.993 16.736 38.497 17.024C38.017 17.328 37.425 17.48 36.721 17.48C36.033 17.48 35.417 17.28 34.873 16.88C34.329 16.464 33.841 15.88 33.409 15.128C32.497 13.496 31.993 11.392 31.897 8.816H32.065C33.249 8.784 34.137 8.464 34.729 7.856C35.321 7.232 35.617 6.272 35.617 4.976C35.617 3.36 34.937 2.52 33.577 2.456H33.049C32.905 2.456 32.793 2.464 32.713 2.48L29.953 17H24.817ZM50.3209 15.2C50.3209 14.08 50.5449 12.4 50.9929 10.16H47.4409L46.1209 17H41.1049L44.1529 1.16H49.2169L47.8249 8.24H51.3769L52.6969 1.16H57.7609C57.5369 2.344 57.2809 3.6 56.9929 4.928L56.1769 8.84C55.5689 11.88 55.2649 14.064 55.2649 15.392C55.2649 15.936 55.3529 16.36 55.5289 16.664C54.7289 17.208 53.8569 17.48 52.9129 17.48C51.9849 17.48 51.3209 17.256 50.9209 16.808C50.5209 16.36 50.3209 15.824 50.3209 15.2ZM58.6977 11.144C58.6977 8.12 59.4817 5.656 61.0497 3.752C62.7137 1.688 64.9937 0.655999 67.8897 0.655999C69.9857 0.655999 71.5617 1.168 72.6177 2.192C73.6737 3.2 74.2017 4.776 74.2017 6.92C74.2017 10.184 73.3697 12.768 71.7057 14.672C70.0577 16.544 67.8497 17.48 65.0817 17.48C62.9217 17.48 61.3137 16.944 60.2577 15.872C59.2177 14.784 58.6977 13.208 58.6977 11.144ZM65.0097 6.176C64.2897 9.056 63.9297 11.632 63.9297 13.904C63.9297 14.448 64.0177 14.896 64.1937 15.248C64.3857 15.6 64.7217 15.776 65.2017 15.776C65.6977 15.776 66.0977 15.664 66.4017 15.44C66.7057 15.2 66.9777 14.816 67.2177 14.288C67.6017 13.424 67.9697 12.08 68.3217 10.256C68.6897 8.416 68.8897 7.12 68.9217 6.368C68.9537 5.6 68.9697 4.928 68.9697 4.352C68.9697 3.776 68.8817 3.304 68.7057 2.936C68.5297 2.568 68.2017 2.384 67.7217 2.384C67.2577 2.384 66.8657 2.528 66.5457 2.816C65.9537 3.36 65.4417 4.48 65.0097 6.176ZM74.6567 17L79.0008 1.16H84.0168L85.1208 10.208L89.5848 1.16H93.7848L94.2168 13.016C94.2808 14.584 94.6968 15.608 95.4648 16.088C95.2888 16.408 94.9448 16.72 94.4328 17.024C93.9208 17.328 93.3208 17.48 92.6328 17.48C91.9608 17.48 91.4248 17.384 91.0248 17.192C90.6248 17 90.3128 16.744 90.0888 16.424C89.6888 15.848 89.4888 15.008 89.4888 13.904V6.488L84.7608 17H81.7848L80.1048 6.224L77.4168 17H74.6567ZM106.742 13.304C107.046 13.688 107.198 14.192 107.198 14.816C107.198 15.68 106.878 16.344 106.238 16.808C105.598 17.256 104.774 17.48 103.766 17.48C103.19 17.48 102.462 17.416 101.582 17.288C99.8539 17.016 98.7259 16.88 98.1979 16.88C97.6699 16.88 97.3019 16.896 97.0939 16.928C96.8859 16.944 96.6139 16.968 96.2779 17L99.2299 1.16H109.574C109.574 2.136 109.334 2.88 108.854 3.392C108.39 3.904 107.694 4.16 106.766 4.16C105.838 4.16 104.902 3.944 103.958 3.512L103.214 7.712H107.486C107.486 8.56 107.278 9.224 106.862 9.704C106.446 10.168 105.886 10.4 105.182 10.4C104.494 10.4 103.934 10.32 103.502 10.16C103.07 10 102.83 9.896 102.782 9.848L101.918 14.384C102.302 14.432 102.854 14.456 103.574 14.456C104.806 14.456 105.862 14.072 106.742 13.304Z" fill="url(#paint0_linear_55_9704)"/>
<defs>
<linearGradient id="paint0_linear_55_9704" x1="-0.00934588" y1="14" x2="111.195" y2="16.8661" gradientUnits="userSpaceOnUse">
<stop offset="0.3" stop-color="#C81742"/>
<stop offset="0.81" stop-color="#E00774"/>
</linearGradient>
</defs>
</svg>
