<svg width="172" height="172" viewBox="0 0 172 172" fill="none" xmlns="http://www.w3.org/2000/svg">
<path fill-rule="evenodd" clip-rule="evenodd" d="M137.572 139.069C124.244 152.023 106.054 160 86 160C65.9223 160 47.7121 152.004 34.3802 139.023C47.6521 124.848 61.2264 116.27 75 113.508V99.7564C65.0045 95.4818 58.0005 85.5588 58.0005 74C58.0005 58.536 70.5365 46 86.0005 46C101.464 46 114.001 58.536 114.001 74C114.001 85.1698 107.46 94.812 98 99.3057V114.261C110.353 117.481 123.554 125.337 137.572 139.069ZM145.485 130.025C133.734 118.606 121.997 110.537 110.323 105.758C119.855 98.4469 126.001 86.9411 126.001 74C126.001 51.9086 108.092 34 86.0005 34C63.9091 34 46.0005 51.9086 46.0005 74C46.0005 86.6277 51.852 97.8888 60.9914 105.22C48.7364 110.11 37.2087 118.638 26.452 129.94C17.3696 117.652 12 102.453 12 86C12 45.1309 45.1309 12 86 12C126.869 12 160 45.1309 160 86C160 102.491 154.606 117.722 145.485 130.025ZM172 86C172 133.496 133.496 172 86 172C38.5035 172 0 133.496 0 86C0 38.5035 38.5035 0 86 0C133.496 0 172 38.5035 172 86Z" fill="#DDDDDD"/>
</svg>
