<svg width="20" height="16" viewBox="0 0 20 16" fill="none" xmlns="http://www.w3.org/2000/svg">
<path d="M1.6665 3.83333L8.4706 8.5962C9.02158 8.98188 9.29707 9.17473 9.59672 9.24942C9.86142 9.3154 10.1383 9.3154 10.403 9.24942C10.7026 9.17473 10.9781 8.98188 11.5291 8.5962L18.3332 3.83333M5.6665 14.6667H14.3332C15.7333 14.6667 16.4334 14.6667 16.9681 14.3942C17.4386 14.1545 17.821 13.772 18.0607 13.3016C18.3332 12.7669 18.3332 12.0668 18.3332 10.6667V5.33333C18.3332 3.9332 18.3332 3.23314 18.0607 2.69836C17.821 2.22795 17.4386 1.8455 16.9681 1.60582C16.4334 1.33333 15.7333 1.33333 14.3332 1.33333H5.6665C4.26637 1.33333 3.56631 1.33333 3.03153 1.60582C2.56112 1.8455 2.17867 2.22795 1.93899 2.69836C1.6665 3.23314 1.6665 3.9332 1.6665 5.33333V10.6667C1.6665 12.0668 1.6665 12.7669 1.93899 13.3016C2.17867 13.772 2.56112 14.1545 3.03153 14.3942C3.56631 14.6667 4.26637 14.6667 5.6665 14.6667Z" stroke="#222222" stroke-width="1.5" stroke-linecap="round" stroke-linejoin="round"/>
</svg>
